<svg data-v-2cb57da0="" version="1.0"
     xmlns="http://www.w3.org/2000/svg"
     width="100%" height="100%" viewBox="0 0 340.000000 250.000000" preserveAspectRatio="xMidYMid meet" color-interpolation-filters="sRGB" style="margin: auto;">
    <g fill="#0051eb" class="icon-text-wrapper icon-svg-group iconsvg" transform="translate(69.62100219726562,99.02642250061035)">
        <g class="iconsvg-imagesvg" transform="translate(0,0)" mask="url(#390486a3-0e94-4951-8ba7-1d8d38ec2429)">
            <rect width="72" height="63.9471549987793" transform="translate(-6, -6)" style="pointer-events:none;" fill="url(#71b724eb-9137-4c76-86b4-8d072d42d368)"></rect>
        </g>
        <g transform="translate(67,1.5725784301757812)">
            <g class="tp-name iconsvg-namesvg" transform="translate(0,0)" fill="url(#218b8043-30d5-41b5-afce-da527205e945)">
                <g transform="scale(1)">
                    <g>
                        <path d="M29.3-13.1L31.2-7.55C31.4-6.9 31.1-6.45 30.4-6.4L17.3-5.75C16.5-5.7 16.15-6.25 16.55-6.95L22.5-17.35C22.75-17.85 23.15-18.05 23.7-18.05L42.45-18.05C43.4-18.05 43.95-18.6 43.95-19.55L43.95-21.35C43.95-22.3 43.4-22.85 42.45-22.85L3.55-22.85C2.6-22.85 2.05-22.3 2.05-21.35L2.05-19.55C2.05-18.6 2.6-18.05 3.55-18.05L11.05-18.05C11.85-18.05 12.15-17.5 11.75-16.85L5.45-6C5.1-5.35 4.95-4.85 4.95-4.15L4.95-1.55C4.95-0.6 5.55 0 6.5-0.05L32.45-1.25C33-1.3 33.4-1 33.6-0.5 33.8 0.1 34.3 0.35 35.15 0.35L40.9 0.35C42 0.35 42.45-0.35 42.1-1.35L38-13.6C37.75-14.4 37.15-14.8 36.3-14.8L30.55-14.8C29.45-14.8 28.95-14.1 29.3-13.1ZM5.8-33.15L5.8-31.25C5.8-30.3 6.35-29.75 7.3-29.75L39.55-29.75C40.5-29.75 41.05-30.3 41.05-31.25L41.05-33.15C41.05-34.1 40.5-34.65 39.55-34.65L7.3-34.65C6.35-34.65 5.8-34.1 5.8-33.15ZM72.5-24.9L70.9-20.2C70.7-19.65 70.35-19.4 69.8-19.4L65.9-19.4C64.95-19.4 64.4-18.85 64.4-17.9L64.4-16.15C64.4-15.2 64.95-14.65 65.9-14.65L67.8-14.65C68.5-14.65 68.85-14.2 68.6-13.5L64.55-1.4C64.2-0.4 64.65 0.3 65.75 0.3L70.75 0.3C71.6 0.3 72.15-0.1 72.45-0.9L75.55-9.95C75.85-10.8 76.55-10.85 76.9-10.05L81.25-0.7C81.6 0.1 82.15 0.4 83 0.4L87.9 0.4C89.05 0.4 89.5-0.3 89-1.35L83.35-13.45C83.05-14.15 83.35-14.65 84.1-14.65L87.3-14.65C88.25-14.65 88.8-15.2 88.8-16.15L88.8-17.9C88.8-18.85 88.25-19.4 87.3-19.4L79.95-19.4C79.25-19.4 78.9-19.85 79.15-20.55L80.45-24.4C80.8-25.4 80.3-26.1 79.2-26.1L74.2-26.1C73.35-26.1 72.75-25.7 72.5-24.9ZM59.7 0.45C61.65 0.45 63.1-0.9 63.1-2.85L63.15-18.5C63.15-19.2 62.95-19.8 62.55-20.4 62.35-20.65 62.5-21 63-21.45L64-22.3C64.85-23 64.25-23.8 62.9-23.8L60.9-23.8C60.4-23.8 60-24.05 59.7-24.45L59.3-25C58.85-25.7 58.3-25.95 57.5-25.95L52.25-25.95C51-25.95 50.6-25.05 51.4-24.1L53.8-21.25C54.2-20.75 54.2-20.3 53.7-19.85L50.4-17.05C49.35-16.15 49.65-15.2 51.05-15.2L54.25-15.2C54.9-15.2 55.25-14.85 55.25-14.2L55.25-13.2C55.25-12.7 55.05-12.3 54.7-11.95L50.35-8C49.3-7.05 49.7-6.15 51.05-6.15L54.25-6.15C54.85-6.15 55.3-5.75 55.3-5.15L55.3-4.9C55.3-4.35 55.15-4 54.85-3.65L52.95-1.4C52.15-0.4 52.6 0.45 53.85 0.45ZM58.25-27.85L63.8-27.85C64.35-27.85 64.8-28 65.05-28.3 65.4-28.8 65.6-29.1 66.15-29.1L71.9-29.1C72.55-29.1 72.9-28.85 72.9-28.5 72.9-28.1 73.45-27.85 74.4-27.85L79.95-27.85C80.5-27.85 80.95-28 81.2-28.3 81.55-28.8 81.75-29.1 82.3-29.1L87.6-29.1C88.55-29.1 89.1-29.65 89.1-30.6L89.1-31.85C89.1-32.8 88.55-33.35 87.6-33.35L82.45-33.35C81.8-33.35 81.45-33.7 81.45-34.35L81.45-34.45C81.45-35.15 80.9-35.55 79.95-35.55L73.6-35.55C72.25-35.55 71.9-34.65 72.85-33.7 72.9-33.65 72.9-33.6 72.9-33.5 72.9-33.4 72.55-33.35 71.9-33.35L66.3-33.35C65.65-33.35 65.3-33.7 65.3-34.35L65.3-34.45C65.3-35.15 64.75-35.55 63.8-35.55L57.45-35.55C56.1-35.55 55.75-34.65 56.7-33.7 56.75-33.65 56.75-33.6 56.75-33.5 56.75-33.4 56.4-33.35 55.75-33.35L50.7-33.35C49.75-33.35 49.2-32.8 49.2-31.85L49.2-30.6C49.2-29.65 49.75-29.1 50.7-29.1L55.75-29.1C56.4-29.1 56.75-28.85 56.75-28.5 56.75-28.1 57.3-27.85 58.25-27.85ZM84.55-20.45L87.2-20.45C88.2-20.45 88.75-21 88.6-22.05L88.15-24.65C88-25.6 87.4-26 86.5-26L83.85-26C82.85-26 82.3-25.45 82.45-24.4L82.9-21.8C83.05-20.85 83.65-20.45 84.55-20.45ZM118.55-35.5L110.15-35.5C108.9-35.5 108.45-34.65 109.25-33.65 109.5-33.35 109.6-33.15 109.6-33 109.6-32.85 109.25-32.75 108.6-32.75L96.6-32.75C95.65-32.75 95.1-32.2 95.1-31.25L95.1-27.1C95.1-26.15 95.65-25.6 96.6-25.6L98.3-25.6C99.05-25.6 99.4-25.05 99-24.4L96.15-19.4C95.6-18.4 96.05-17.6 97.2-17.6L101.2-17.6C102-17.6 102.6-17.95 103-18.65 103.15-18.9 103.55-18.9 104.1-18.65L105.65-18C106.45-17.65 106.65-17.05 106-16.8 105.55-16.6 105.2-16.55 104.75-16.55L96.6-16.55C95.65-16.55 95.1-16 95.1-15.05L95.1-13.85C95.1-12.9 95.65-12.35 96.6-12.35L109.25-12.35C109.95-12.35 110.45-12.4 111.1-12.7L113.95-13.9C114.4-14.1 114.8-14.1 115.25-13.9L118.05-12.75C118.7-12.45 119.2-12.35 119.9-12.35L132.35-12.35C133.3-12.35 133.85-12.9 133.85-13.85L133.85-15.05C133.85-16 133.3-16.55 132.35-16.55L122.05-16.55C121.6-16.55 121.3-16.6 121.1-16.7 120.95-16.75 121.6-17.1 122.4-17.45L128.95-20.2C129.7-20.5 130.1-21.1 130.1-21.95L130.1-24.6C130.1-25.25 130.45-25.6 131.1-25.6L133.4-25.6C134.35-25.6 134.9-26.15 134.9-27.1L134.9-31.25C134.9-32.2 134.35-32.75 133.4-32.75L121.05-32.75C120.4-32.75 120.05-33.1 120.05-33.75L120.05-34.15C120.05-35 119.5-35.5 118.55-35.5ZM97.15-9.7L97.15-2.1C97.15-1.15 97.7-0.6 98.65-0.6L130.9-0.6C131.85-0.6 132.4-1.15 132.4-2.1L132.4-9.7C132.4-10.65 131.85-11.2 130.9-11.2L98.65-11.2C97.7-11.2 97.15-10.65 97.15-9.7ZM105.75-27.1L104.6-27.1C103.95-27.1 103.6-27.35 103.6-27.8 103.6-28.2 103.95-28.45 104.6-28.45L125.35-28.45C126-28.45 126.35-28.1 126.35-27.5 126.35-26.9 126-26.55 125.35-26.55L108.95-26.55C108.15-26.55 107.6-26.65 107.7-26.85 107.8-27 106.95-27.1 105.75-27.1ZM107.15-5.7L107.15-6.1C107.15-6.75 107.5-7.1 108.15-7.1L121.4-7.1C122.05-7.1 122.4-6.75 122.4-6.1L122.4-5.7C122.4-5.05 122.05-4.7 121.4-4.7L108.15-4.7C107.5-4.7 107.15-5.05 107.15-5.7ZM118.4-21.05L115.2-19.55C114.7-19.3 114.3-19.3 113.85-19.5L109.9-21.1C109-21.45 109.15-22.25 110.1-22.25L118.15-22.25C119.15-22.25 119.3-21.5 118.4-21.05Z" transform="translate(-2.049999952316284, 35.54999923706055)"></path>
                    </g>
                </g>
            </g>
            <g class="tp-slogan iconsvg-slogansvg" fill="url(#008cfdbf-c513-4828-aab3-76ba1b37a9d6)" transform="translate(-0.910003662109375,42)">
                <!---->
                <!---->
                <g transform="scale(1, 1)">
                    <g transform="scale(1)">
                        <path d="M8.17-1.08L8.17-1.97C8.17-2.29 7.96-2.38 7.73-2.15L7.57-1.99C7.49-1.91 7.40-1.87 7.28-1.87L3.40-1.87C3.24-1.87 3.16-1.96 3.16-2.11L3.16-6.12C3.16-6.28 3.24-6.36 3.40-6.36L7.81-6.36C8.04-6.36 8.17-6.49 8.17-6.72L8.17-7.15C8.17-7.38 8.04-7.51 7.81-7.51L1.63-7.51C1.16-7.51 0.91-7.26 0.91-6.79L0.91-1.52C0.91-0.98 1.31-0.72 1.73-0.72L7.81-0.72C8.04-0.72 8.17-0.85 8.17-1.08ZM9.77-7.15L9.91-6.92C9.97-6.82 10.00-6.74 10.00-6.64L10.00-1.52C10.00-1.06 10.36-0.72 10.82-0.72L16.43-0.72C16.66-0.72 16.79-0.85 16.79-1.08L16.79-1.51C16.79-1.74 16.66-1.87 16.43-1.87L12.52-1.87C12.36-1.87 12.28-1.96 12.28-2.11L12.28-7.15C12.28-7.38 12.14-7.51 11.92-7.51L10.06-7.51C9.77-7.51 9.64-7.36 9.77-7.15ZM17.71-6.72L17.71-1.52C17.71-0.98 18.11-0.72 18.53-0.72L24.13-0.72C24.65-0.72 24.92-1.01 24.92-1.51L24.92-6.71C24.92-7.20 24.52-7.51 24.14-7.51L18.50-7.51C17.99-7.51 17.71-7.22 17.71-6.72ZM22.67-6.12L22.67-2.11C22.67-1.96 22.58-1.87 22.43-1.87L20.20-1.87C20.04-1.87 19.96-1.96 19.96-2.11L19.96-6.12C19.96-6.28 20.04-6.36 20.20-6.36L22.43-6.36C22.58-6.36 22.67-6.28 22.67-6.12ZM26.56-7.15L26.70-6.92C26.76-6.82 26.78-6.74 26.78-6.64L26.78-1.52C26.83-1.06 27.12-0.72 27.59-0.72L33.34-0.72C33.85-0.72 34.14-1.02 34.14-1.52L34.14-7.15C34.14-7.38 34.01-7.51 33.78-7.51L31.88-7.51C31.60-7.51 31.49-7.32 31.64-7.08L31.74-6.92C31.80-6.82 31.82-6.74 31.82-6.64L31.82-2.11C31.82-1.96 31.74-1.87 31.58-1.87L29.28-1.87C29.12-1.87 29.04-1.96 29.04-2.11L29.04-7.15C29.04-7.38 28.91-7.51 28.68-7.51L26.84-7.51C26.56-7.51 26.42-7.36 26.56-7.15ZM42.70-7.51L36.18-7.51C35.89-7.51 35.78-7.32 35.94-7.08L36.04-6.92C36.10-6.82 36.12-6.74 36.12-6.64L36.12-1.08C36.12-0.85 36.25-0.72 36.48-0.72L42.61-0.72C43.08-0.72 43.42-1.06 43.42-1.52L43.42-6.79C43.42-7.26 43.16-7.51 42.70-7.51ZM41.21-6.12L41.21-2.11C41.21-1.96 41.12-1.87 40.97-1.87L38.69-1.87C38.53-1.87 38.45-1.96 38.45-2.11L38.45-6.12C38.45-6.28 38.53-6.36 38.69-6.36L40.97-6.36C41.12-6.36 41.21-6.28 41.21-6.12ZM53.52-7.15L53.65-6.94C53.71-6.84 53.74-6.74 53.70-6.62L52.22-1.13C52.16-0.89 52.28-0.72 52.54-0.72L53.76-0.72C53.96-0.72 54.10-0.82 54.16-1.02L54.55-2.36C54.59-2.51 54.68-2.57 54.82-2.57L57.28-2.57C57.42-2.57 57.52-2.51 57.55-2.36L57.91-1.03C57.97-0.82 58.10-0.72 58.31-0.72L59.64-0.72C59.89-0.72 60.02-0.89 59.95-1.13L58.27-7.21C58.21-7.43 58.08-7.51 57.88-7.51L53.81-7.51C53.52-7.51 53.39-7.36 53.52-7.15ZM56.57-6.16L57.16-3.98C57.20-3.83 57.12-3.72 56.95-3.72L55.21-3.72C55.04-3.72 54.96-3.84 55.01-4.00L55.64-6.16C55.68-6.30 55.78-6.36 55.91-6.36L56.29-6.36C56.44-6.36 56.53-6.30 56.57-6.16ZM68.75-1.08L68.75-1.97C68.75-2.29 68.53-2.38 68.30-2.15L68.15-1.99C68.06-1.91 67.98-1.87 67.86-1.87L63.97-1.87C63.82-1.87 63.73-1.96 63.73-2.11L63.73-6.12C63.73-6.28 63.82-6.36 63.97-6.36L68.39-6.36C68.62-6.36 68.75-6.49 68.75-6.72L68.75-7.15C68.75-7.38 68.62-7.51 68.39-7.51L62.21-7.51C61.74-7.51 61.49-7.26 61.49-6.79L61.49-1.52C61.49-0.98 61.88-0.72 62.30-0.72L68.39-0.72C68.62-0.72 68.75-0.85 68.75-1.08ZM70.60-6.72L70.60-1.52C70.60-0.98 70.99-0.72 71.41-0.72L76.60-0.72C77.11-0.72 77.39-1.00 77.39-1.51L77.39-1.52C77.39-1.52 77.48-1.50 77.64-1.44L77.74-1.40C77.94-1.33 78.07-1.45 78.07-1.72L78.07-2.35C78.07-2.56 77.96-2.70 77.77-2.76L77.58-2.82C77.45-2.87 77.39-2.96 77.39-3.10L77.39-6.71C77.39-7.18 77.03-7.51 76.56-7.51L71.39-7.51C70.87-7.51 70.60-7.22 70.60-6.72ZM75.14-2.23L75.14-2.11C75.14-1.96 75.06-1.87 74.90-1.87L73.08-1.87C72.92-1.87 72.84-1.96 72.84-2.11L72.84-6.12C72.84-6.28 72.92-6.36 73.08-6.36L74.90-6.36C75.06-6.36 75.14-6.28 75.14-6.12L75.14-4.12C75.14-3.95 75.04-3.86 74.87-3.92L74.60-4.02C74.36-4.10 74.18-4.00 74.18-3.73L74.17-3.10C74.17-2.89 74.27-2.75 74.46-2.68L74.95-2.51C75.08-2.46 75.14-2.36 75.14-2.23ZM79.01-7.15L79.15-6.92C79.21-6.82 79.24-6.74 79.24-6.64L79.24-1.52C79.28-1.06 79.57-0.72 80.04-0.72L85.79-0.72C86.30-0.72 86.59-1.02 86.59-1.52L86.59-7.15C86.59-7.38 86.46-7.51 86.23-7.51L84.34-7.51C84.05-7.51 83.94-7.32 84.10-7.08L84.19-6.92C84.25-6.82 84.28-6.74 84.28-6.64L84.28-2.11C84.28-1.96 84.19-1.87 84.04-1.87L81.73-1.87C81.58-1.87 81.49-1.96 81.49-2.11L81.49-7.15C81.49-7.38 81.36-7.51 81.13-7.51L79.30-7.51C79.01-7.51 78.88-7.36 79.01-7.15ZM88.40-7.15L88.55-6.92C88.61-6.82 88.63-6.74 88.63-6.64L88.63-1.08C88.63-0.85 88.76-0.72 88.99-0.72L90.54-0.72C90.77-0.72 90.90-0.85 90.90-1.08L90.90-7.15C90.90-7.38 90.77-7.51 90.54-7.51L88.69-7.51C88.40-7.51 88.27-7.36 88.40-7.15ZM93.61-2.22L93.46-2.38C93.23-2.60 93.01-2.52 93.01-2.20L93.01-1.08C93.01-0.85 93.14-0.72 93.37-0.72L99.02-0.72C99.58-0.72 99.83-1.07 99.83-1.52L99.83-3.84C99.83-4.36 99.54-4.63 99.04-4.63L95.54-4.63C95.39-4.63 95.30-4.72 95.30-4.87L95.30-6.12C95.30-6.28 95.39-6.36 95.54-6.36L97.33-6.36C97.49-6.36 97.57-6.28 97.57-6.12L97.57-5.92C97.57-5.69 97.70-5.56 97.93-5.56L99.47-5.56C99.70-5.56 99.83-5.69 99.83-5.92L99.83-6.72C99.83-7.24 99.55-7.51 99.04-7.51L93.80-7.51C93.29-7.51 93.01-7.24 93.01-6.72L93.01-4.27C93.01-3.76 93.30-3.48 93.80-3.48L97.33-3.48C97.49-3.48 97.57-3.40 97.57-3.24L97.57-2.34C97.57-2.18 97.49-2.10 97.33-2.10L93.90-2.10C93.78-2.10 93.70-2.14 93.61-2.22ZM101.63-7.15L101.77-6.92C101.83-6.82 101.86-6.74 101.86-6.64L101.86-1.08C101.86-0.85 101.99-0.72 102.22-0.72L103.76-0.72C103.99-0.72 104.12-0.85 104.12-1.08L104.12-7.15C104.12-7.38 103.99-7.51 103.76-7.51L101.92-7.51C101.63-7.51 101.50-7.36 101.63-7.15ZM110.72-1.07L110.74-6.11C110.74-6.26 110.82-6.35 110.98-6.35L112.84-6.35C113.06-6.35 113.20-6.48 113.20-6.71L113.20-7.14C113.20-7.37 113.06-7.50 112.84-7.50L106.24-7.50C106.01-7.50 105.88-7.37 105.88-7.14L105.88-6.71C105.88-6.48 106.01-6.35 106.24-6.35L108.19-6.35C108.35-6.35 108.43-6.26 108.43-6.11L108.42-1.07C108.42-0.84 108.55-0.71 108.78-0.71L110.36-0.71C110.59-0.71 110.72-0.83 110.72-1.07ZM114.62-7.15L114.77-6.92C114.83-6.82 114.85-6.74 114.85-6.64L114.85-1.08C114.85-0.85 114.98-0.72 115.21-0.72L116.76-0.72C116.99-0.72 117.12-0.85 117.12-1.08L117.12-7.15C117.12-7.38 116.99-7.51 116.76-7.51L114.91-7.51C114.62-7.51 114.49-7.36 114.62-7.15ZM119.15-6.72L119.15-1.52C119.15-0.98 119.54-0.72 119.96-0.72L125.57-0.72C126.08-0.72 126.36-1.01 126.36-1.51L126.36-6.71C126.36-7.20 125.95-7.51 125.58-7.51L119.94-7.51C119.42-7.51 119.15-7.22 119.15-6.72ZM124.10-6.12L124.10-2.11C124.10-1.96 124.02-1.87 123.86-1.87L121.63-1.87C121.48-1.87 121.39-1.96 121.39-2.11L121.39-6.12C121.39-6.28 121.48-6.36 121.63-6.36L123.86-6.36C124.02-6.36 124.10-6.28 124.10-6.12ZM128.12-7.15L128.27-6.92C128.33-6.82 128.35-6.74 128.35-6.64L128.35-1.08C128.35-0.85 128.48-0.72 128.71-0.72L130.04-0.72C130.27-0.72 130.40-0.85 130.40-1.08L130.40-4.36C130.40-4.58 130.56-4.64 130.69-4.45L133.13-0.95C133.24-0.78 133.37-0.72 133.56-0.72L135.22-0.72C135.44-0.72 135.58-0.85 135.58-1.08L135.58-7.15C135.58-7.38 135.44-7.51 135.22-7.51L133.96-7.51C133.73-7.51 133.60-7.38 133.60-7.15L133.60-3.76C133.60-3.53 133.44-3.49 133.31-3.67L130.75-7.28C130.64-7.44 130.51-7.51 130.32-7.51L128.41-7.51C128.12-7.51 127.99-7.36 128.12-7.15Z" transform="translate(-0.912, 7.5120000000000005)"></path>
                    </g>
                </g>
            </g>
        </g>
    </g>
    <defs>
        <linearGradient x1="0" y1="1" x2="0" y2="0" id="008cfdbf-c513-4828-aab3-76ba1b37a9d6">
            <stop offset="0%" stop-color="#6a12cb"></stop>
            <stop offset="100%" stop-color="#2575fc"></stop>
        </linearGradient>
        <filter id="42443b3f1de60f6b6fd3b6a9844b4764" filterUnits="userSpaceOnUse">
            <feColorMatrix type="matrix" values="0 0 0 0 0.99609375  0 0 0 0 0.99609375  0 0 0 0 0.99609375  0 0 0 1 0"></feColorMatrix>
        </filter>
        <linearGradient x1="0" y1="1" x2="0" y2="0" id="218b8043-30d5-41b5-afce-da527205e945">
            <stop offset="0%" stop-color="#6a12cb"></stop>
            <stop offset="100%" stop-color="#2575fc"></stop>
        </linearGradient>
        <filter id="42443b3f1de60f6b6fd3b6a9844b4764" filterUnits="userSpaceOnUse">
            <feColorMatrix type="matrix" values="0 0 0 0 0.99609375  0 0 0 0 0.99609375  0 0 0 0 0.99609375  0 0 0 1 0"></feColorMatrix>
        </filter>
    </defs>
    <defs>
        <filter id="b14a3370-87dd-436f-97ea-808b216e507e" filterUnits="userSpaceOnUse">
            <feColorMatrix type="matrix" values="0 0 0 0 0.99609375  0 0 0 0 0.99609375  0 0 0 0 0.99609375  0 0 0 1 0"></feColorMatrix>
        </filter>
        <linearGradient x1="0" y1="1" x2="0" y2="0" id="71b724eb-9137-4c76-86b4-8d072d42d368">
            <stop offset="0%" stop-color="#6a12cb"></stop>
            <stop offset="100%" stop-color="#2575fc"></stop>
        </linearGradient>
        <filter id="42443b3f1de60f6b6fd3b6a9844b4764" filterUnits="userSpaceOnUse">
            <feColorMatrix type="matrix" values="0 0 0 0 0.99609375  0 0 0 0 0.99609375  0 0 0 0 0.99609375  0 0 0 1 0"></feColorMatrix>
        </filter>
    </defs>
    <mask id="390486a3-0e94-4951-8ba7-1d8d38ec2429">
        <g class="iconsvg-imagesvg" filter="url(#b14a3370-87dd-436f-97ea-808b216e507e)">
            <g>
                <rect fill="#0051eb" fill-opacity="0" stroke-width="2" x="0" y="0" width="60" height="51.94715243026095" class="image-rect"></rect>
                <svg x="0" y="0" width="60" height="51.94715243026095" class="image-svg-svg primary">
                    <svg
                            xmlns="http://www.w3.org/2000/svg" viewBox="-0.005474063102155924 0 128.7960968017578 111.510009765625">
                        <title>资源 6</title>
                        <g>
                            <g fill="#0051eb">
                                <path d="M104.73 0c1.77 1.26 1.92 3.42 2.67 5.19 6.79 15.94 13.47 31.93 20.18 47.9 3.38 8-.51 13.91-9.27 13.92-20.09 0-40.18 0-60.27.06a3.67 3.67 0 0 1-4-2.64c-7.17-17.3-14.49-34.55-21.69-51.84C29.71 6.26 33.26.42 39.86 0a4.57 4.57 0 0 0 2.37.26h60.13a4.68 4.68 0 0 0 2.37-.26z"></path>
                                <path d="M23.43 15.54l11.43 27.15c4.29 10.22 8.64 20.42 12.81 30.69.79 2 1.79 2.47 3.79 2.46 21.32-.07 42.63 0 64 0h3.34c-3.43 8.9-9.91 13.41-19.09 13.41-19.09 0-38.18 0-57.28.05-1.87 0-2.88-.5-3.63-2.29-7-16.85-14-33.71-21.18-50.47-2.55-5.92-2.26-11.11 2-16 1.23-1.48 2.32-3.07 3.81-5z"></path>
                                <path d="M7.45 36.34l15.4 36.74c3.15 7.53 6.37 15 9.4 22.61.75 1.9 1.75 2.49 3.75 2.48 20.7-.09 41.41-.06 62.11-.06h3.35c-2 7.28-9.82 13.39-17.07 13.4-17.47 0-34.94-.05-52.42 0-5.18 0-8.59-2.16-10.57-6.92-6.7-16.1-13.5-32.16-20.19-48.26a13.59 13.59 0 0 1 1.87-14.24c1.34-1.75 2.67-3.51 4.37-5.75z"></path>
                            </g>
                        </g>
                    </svg>
                </svg>
                <!---->
            </g>
        </g>
    </mask>
</svg>